<mxfile host="65bd71144e">
    <diagram id="uDkUzBTlYx9REk6sPFa2" name="第 1 页">
        <mxGraphModel dx="705" dy="381" grid="1" gridSize="10" guides="1" tooltips="1" connect="1" arrows="1" fold="1" page="1" pageScale="1" pageWidth="827" pageHeight="1169" math="0" shadow="0">
            <root>
                <mxCell id="0"/>
                <mxCell id="1" parent="0"/>
                <mxCell id="2" value="String" style="swimlane;fontStyle=1;align=center;verticalAlign=top;childLayout=stackLayout;horizontal=1;startSize=30;horizontalStack=0;resizeParent=1;resizeLast=0;collapsible=1;marginBottom=0;rounded=0;shadow=0;strokeWidth=1;fontFamily=Verdana;labelBackgroundColor=none;labelBorderColor=none;fillColor=#76608a;fontColor=#ffffff;strokeColor=#432D57;swimlaneLine=0;connectable=1;allowArrows=1;expand=1;" parent="1" vertex="1">
                    <mxGeometry x="310" y="240" width="160" height="30" as="geometry">
                        <mxRectangle x="230" y="140" width="160" height="26" as="alternateBounds"/>
                    </mxGeometry>
                </mxCell>
                <mxCell id="10" style="edgeStyle=elbowEdgeStyle;elbow=vertical;html=1;entryX=0.938;entryY=0;entryDx=0;entryDy=0;entryPerimeter=0;strokeWidth=2;strokeColor=#FFB366;" parent="1" source="3" target="2" edge="1">
                    <mxGeometry relative="1" as="geometry">
                        <Array as="points">
                            <mxPoint x="560" y="220"/>
                        </Array>
                    </mxGeometry>
                </mxCell>
                <mxCell id="3" value="Object" style="swimlane;fontStyle=3;align=center;verticalAlign=top;childLayout=stackLayout;horizontal=1;startSize=30;horizontalStack=0;resizeParent=1;resizeLast=0;collapsible=1;marginBottom=0;rounded=0;shadow=0;strokeWidth=1;fontFamily=Verdana;labelBackgroundColor=none;labelBorderColor=none;fillColor=#6d8764;fontColor=#ffffff;strokeColor=#3A5431;swimlaneLine=0;connectable=1;allowArrows=1;expand=1;pointerEvents=1;deletable=1;cloneable=1;rotatable=1;resizable=1;" parent="1" vertex="1">
                    <mxGeometry x="580" y="160" width="160" height="30" as="geometry">
                        <mxRectangle x="230" y="140" width="160" height="26" as="alternateBounds"/>
                    </mxGeometry>
                </mxCell>
                <mxCell id="8" style="edgeStyle=elbowEdgeStyle;elbow=vertical;html=1;entryX=0.352;entryY=0.047;entryDx=0;entryDy=0;entryPerimeter=0;dashed=1;strokeWidth=2;strokeColor=#FFB366;" parent="1" source="4" target="2" edge="1">
                    <mxGeometry relative="1" as="geometry">
                        <Array as="points">
                            <mxPoint x="300" y="210"/>
                        </Array>
                    </mxGeometry>
                </mxCell>
                <mxCell id="4" value="Comparable" style="swimlane;fontStyle=1;align=center;verticalAlign=top;childLayout=stackLayout;horizontal=1;startSize=30;horizontalStack=0;resizeParent=1;resizeLast=0;collapsible=1;marginBottom=0;rounded=0;shadow=0;strokeWidth=1;fontFamily=Verdana;labelBackgroundColor=none;labelBorderColor=none;fillColor=#6d8764;fontColor=#ffffff;strokeColor=#3A5431;swimlaneLine=0;connectable=1;allowArrows=1;expand=1;movable=1;" parent="1" vertex="1">
                    <mxGeometry x="220" y="160" width="160" height="30" as="geometry">
                        <mxRectangle x="200" y="160" width="160" height="26" as="alternateBounds"/>
                    </mxGeometry>
                </mxCell>
                <mxCell id="7" style="edgeStyle=elbowEdgeStyle;html=1;elbow=vertical;entryX=0.047;entryY=-0.007;entryDx=0;entryDy=0;entryPerimeter=0;dashed=1;strokeWidth=2;strokeColor=#FFB366;" parent="1" source="5" target="2" edge="1">
                    <mxGeometry relative="1" as="geometry">
                        <Array as="points">
                            <mxPoint x="290" y="220"/>
                        </Array>
                    </mxGeometry>
                </mxCell>
                <mxCell id="5" value="Serializable" style="swimlane;fontStyle=1;align=center;verticalAlign=top;childLayout=stackLayout;horizontal=1;startSize=30;horizontalStack=0;resizeParent=1;resizeLast=0;collapsible=1;marginBottom=0;rounded=0;shadow=0;strokeWidth=1;fontFamily=Verdana;labelBackgroundColor=none;labelBorderColor=none;fillColor=#6d8764;fontColor=#ffffff;strokeColor=#3A5431;swimlaneLine=0;connectable=1;allowArrows=1;expand=1;movable=1;" parent="1" vertex="1">
                    <mxGeometry x="40" y="160" width="160" height="30" as="geometry">
                        <mxRectangle x="200" y="160" width="160" height="26" as="alternateBounds"/>
                    </mxGeometry>
                </mxCell>
                <mxCell id="9" style="edgeStyle=elbowEdgeStyle;elbow=vertical;html=1;entryX=0.617;entryY=0.047;entryDx=0;entryDy=0;entryPerimeter=0;strokeWidth=2;strokeColor=#FFB366;dashed=1;" parent="1" source="6" target="2" edge="1">
                    <mxGeometry relative="1" as="geometry">
                        <Array as="points">
                            <mxPoint x="480" y="210"/>
                        </Array>
                    </mxGeometry>
                </mxCell>
                <mxCell id="6" value="CharSequence" style="swimlane;fontStyle=1;align=center;verticalAlign=top;childLayout=stackLayout;horizontal=1;startSize=30;horizontalStack=0;resizeParent=1;resizeLast=0;collapsible=1;marginBottom=0;rounded=0;shadow=0;strokeWidth=1;fontFamily=Verdana;labelBackgroundColor=none;labelBorderColor=none;fillColor=#6d8764;fontColor=#ffffff;strokeColor=#3A5431;swimlaneLine=0;connectable=1;allowArrows=1;expand=1;pointerEvents=1;deletable=1;cloneable=1;rotatable=1;resizable=1;" parent="1" vertex="1">
                    <mxGeometry x="400" y="160" width="160" height="30" as="geometry">
                        <mxRectangle x="230" y="140" width="160" height="26" as="alternateBounds"/>
                    </mxGeometry>
                </mxCell>
                <mxCell id="14" style="edgeStyle=elbowEdgeStyle;elbow=vertical;html=1;exitX=0.5;exitY=0;exitDx=0;exitDy=0;entryX=0.25;entryY=1;entryDx=0;entryDy=0;dashed=1;fontFamily=Verdana;" parent="1" source="11" target="5" edge="1">
                    <mxGeometry relative="1" as="geometry"/>
                </mxCell>
                <mxCell id="11" value="&lt;font face=&quot;Verdana&quot;&gt;&lt;b&gt;&lt;i&gt;String 类 实现了&amp;nbsp;&lt;span style=&quot;color: rgb(255 , 255 , 255)&quot;&gt;Serializable 接口，&lt;br&gt;说明 String 可以串行化&lt;/span&gt;&lt;/i&gt;&lt;/b&gt;&lt;/font&gt;" style="rounded=1;whiteSpace=wrap;html=1;fillColor=#a0522d;fontColor=#ffffff;strokeColor=#6D1F00;" parent="1" vertex="1">
                    <mxGeometry x="30" y="280" width="270" height="50" as="geometry"/>
                </mxCell>
                <mxCell id="13" style="edgeStyle=elbowEdgeStyle;elbow=vertical;html=1;dashed=1;fontFamily=Verdana;" parent="1" source="12" target="4" edge="1">
                    <mxGeometry relative="1" as="geometry"/>
                </mxCell>
                <mxCell id="12" value="&lt;i&gt;&lt;font face=&quot;Verdana&quot;&gt;&lt;b&gt;String 类 实现了&amp;nbsp;&lt;/b&gt;&lt;/font&gt;&lt;span style=&quot;color: rgb(255 , 255 , 255) ; font-family: &amp;#34;verdana&amp;#34; ; font-weight: 700&quot;&gt;Comparable&lt;/span&gt;&lt;font face=&quot;Verdana&quot;&gt;&lt;b&gt;&lt;span style=&quot;color: rgb(255 , 255 , 255)&quot;&gt;&amp;nbsp;接口，&lt;br&gt;说明 String 对象可以比较&lt;/span&gt;&lt;/b&gt;&lt;/font&gt;&lt;/i&gt;" style="rounded=1;whiteSpace=wrap;html=1;fillColor=#a0522d;fontColor=#ffffff;strokeColor=#6D1F00;" parent="1" vertex="1">
                    <mxGeometry x="190" y="60" width="270" height="50" as="geometry"/>
                </mxCell>
            </root>
        </mxGraphModel>
    </diagram>
</mxfile>